<?xml version="1.0"?>
<svg version="1.1" id="Layer_1" xmlns="http://www.w3.org/2000/svg" x="0" y="0" viewBox="0 0 100 100" xml:space="preserve"><path d="M18 48c0-16.6 13.4-30 30-30s30 13.4 30 30h10C88 25.9 70.1 8 48 8S8 25.9 8 48s17.9 40 40 40V78c-16.6 0-30-13.4-30-30z" fill="#f47e5f"/><path d="M48 18c-16.6 0-30 13.4-30 30s13.4 30 30 30V66.3c-.3.1-.6.2-1 .2-1.6 0-3-1.8-3-4s1.3-4 2.9-4c.4 0 .7.1 1 .3V48h30C78 31.4 64.6 18 48 18z" fill="#f7b26a"/><ellipse transform="rotate(-13.736 31.82 37.9)" cx="31.8" cy="37.9" rx="5.8" ry="4.3" fill="#849b87"/><ellipse transform="rotate(-81.425 51.789 43.059)" cx="51.8" cy="43.1" rx="3.6" ry="2.7" fill="#849b87"/><ellipse transform="rotate(-57.894 67.97 43.283)" cx="68" cy="43.3" rx="2.4" ry="1.8" fill="#849b87"/><ellipse transform="rotate(-17.973 56.753 28.277)" cx="56.8" cy="28.3" rx="3.1" ry="2.3" fill="#849b87"/><ellipse transform="rotate(-49.428 64.778 33.687)" cx="64.8" cy="33.7" rx="2.4" ry="1.8" fill="#849b87"/><ellipse transform="rotate(-21.921 32.381 49.96)" cx="32.4" cy="50" rx="2.6" ry="1.9" fill="#849b87"/><ellipse transform="rotate(-62.29 41.565 51.482)" cx="41.6" cy="51.5" rx="2.1" ry="2.9" fill="#849b87"/><ellipse transform="rotate(-58.594 32.39 64.838)" cx="32.4" cy="64.8" rx="2.4" ry="1.8" fill="#849b87"/><ellipse transform="rotate(-72.59 46.999 30.686)" cx="47" cy="30.7" rx="4.4" ry="3.2" fill="#849b87"/><path d="M51.9 31.4l7.3 12.4c2.5-1.9 3.1-5.8 1.2-9-1.9-3.3-5.6-4.7-8.5-3.4z" fill="#e15c64"/><path d="M27.7 62.6l8.6-5.5c-1.4-1.7-4.2-2-6.4-.6-2.2 1.5-3.2 4.1-2.2 6.1z" fill="#e15c64"/><path d="M35.5 67.7L48 74.3c1.1-2.9-.4-6.4-3.7-8.2-3.3-1.7-7.1-1-8.8 1.6z" fill="#e15c64"/><g><path d="M36.3 33.7c-1.9 0-3.5-1.6-3.5-3.5s1.6-3.5 3.5-3.5 3.5 1.6 3.5 3.5-1.6 3.5-3.5 3.5zm0-5c-.8 0-1.5.7-1.5 1.5s.7 1.5 1.5 1.5 1.5-.7 1.5-1.5-.7-1.5-1.5-1.5z" fill="#333"/></g><path d="M82 52H52v40c22.1 0 40-17.9 40-40H82z" fill="#f47e5f"/><path d="M52 52v30c16.6 0 30-13.4 30-30H52z" fill="#f7b26a"/><circle cx="60.8" cy="61.5" r="1.5" fill="#f7b26a"/><ellipse transform="rotate(-42.215 63.815 55.905)" cx="63.8" cy="55.9" rx="2.9" ry="2.1" fill="#849b87"/><path d="M47 58.6c-1.6 0-2.9 1.8-2.9 4s1.3 4 3 4c.3 0 .7-.1 1-.2V59c-.4-.3-.8-.4-1.1-.4z" fill="#849b87"/><path d="M53.9 66.6c0-1.7-.8-3.1-1.9-3.7v7.4c1.1-.5 2-2 1.9-3.7z" fill="#849b87"/><ellipse transform="matrix(.00987 -1 1 .00987 -3.978 135.48)" cx="66.4" cy="69.7" rx="4.4" ry="3.2" fill="#849b87"/><path d="M71.7 62c2.1-1.6 2.8-4.3 1.7-6.2l-8.1 6.1c1.5 1.7 4.3 1.7 6.4.1z" fill="#e15c64"/><path d="M60.8 65c1.9 0 3.5-1.6 3.5-3.5S62.7 58 60.8 58s-3.5 1.6-3.5 3.5 1.5 3.5 3.5 3.5zm0-5c.8 0 1.5.7 1.5 1.5s-.7 1.5-1.5 1.5-1.5-.7-1.5-1.5.6-1.5 1.5-1.5z" fill="#333"/><g><path d="M34.5 52.5c-1.9 0-3.5-1.6-3.5-3.5s1.6-3.5 3.5-3.5S38 47 38 49s-1.5 3.5-3.5 3.5zm0-5c-.8 0-1.5.7-1.5 1.5s.7 1.5 1.5 1.5S36 49.8 36 49s-.7-1.5-1.5-1.5z" fill="#333"/></g><g><path d="M72.6 43.8c-1.9 0-3.5-1.6-3.5-3.5s1.6-3.5 3.5-3.5 3.5 1.6 3.5 3.5-1.6 3.5-3.5 3.5zm0-5c-.8 0-1.5.7-1.5 1.5s.7 1.5 1.5 1.5 1.5-.7 1.5-1.5-.7-1.5-1.5-1.5z" fill="#333"/></g><metadata xmlns:d="https://loading.io/stock/"><d:name>pizza</d:name><d:tags>pizza,pie,pancake,food,party</d:tags><d:license>by</d:license><d:slug>wvmq5k</d:slug></metadata></svg>